<?xml version="1.0" encoding="UTF-8"?>
<svg version="1.1" viewBox="0 0 2000 2000" width="500" height="500" xmlns="http://www.w3.org/2000/svg">
<path transform="translate(800,217)" d="m0 0h100l22 2 14 4 15 9 13 13 9 14 5 13 2 12 1 365 16-6 11-6 16-12 16-15 11-12 15-20 12-17 12-19 13-20 15-24 10-15 15-23 11-18 16-26 14-22 13-21 15-24 9-15 12-19 11-17 8-12 10-14 11-13 9-10 12-10 15-9 13-5 8-2 73-1h418l-6 11-12 21-13 21-12 19-14 22-13 21-60 95-17 28-12 19-30 48-15 23-15 24-17 28-16 26-14 23-15 24-12 19-7 11-12 19-16 25-13 21-15 24-13 21-12 19-11 17-13 19-9 12-13 16-7 8-29 29-14 11-13 10-34 24-18 13-19 14-17 12-18 13-16 12-19 14-36 26-14 10-18 13-19 14-23 16-17 12-19 14-16 12-21 16-19 13-13 9-23 14-19 10h-6l-12 9-21 16-17 12-18 13-17 12-23 16-17 12-19 14-28 20-20 14-18 13-14 10-14 12-13 13-13 17-9 16-7 14-7 21-5 23-2 19-1 21-1 125v129l-1 1h-356v-1522l3-15 7-16 7-11 8-9 13-9 13-6 7-2 8-1z" fill="#2B3668"/>
<path transform="translate(1403,222)" d="m0 0h418l-6 11-12 21-13 21-12 19-14 22-13 21-60 95-17 28-12 19-30 48-15 23-15 24-17 28-16 26-14 23-15 24-12 19-7 11-12 19-16 25-13 21-15 24-13 21-12 19-11 17-13 19-9 12-13 16-7 8-29 29-14 11-13 10-34 24-18 13-19 14-17 12-18 13-16 12-19 14-36 26-14 10-18 13-19 14-23 16-17 12-19 14-16 12-21 16-19 13-13 9-23 14-19 10h-8l6-8 10-11 8-12 8-13 8-18 8-24 4-22 1-9 1-30v-434l1-12h1v5l16-6 11-6 16-12 16-15 11-12 15-20 12-17 12-19 13-20 15-24 10-15 15-23 11-18 16-26 14-22 13-21 15-24 9-15 12-19 11-17 8-12 10-14 11-13 9-10 12-10 15-9 13-5 8-2z" fill="#FACDA5"/>
<path transform="translate(1342,1106)" d="m0 0 4 1 32 46 28 40 11 16 13 18 13 19 11 15 11 16 14 19 14 20 12 17 13 18 32 46 26 36 14 20 12 17 52 72 11 16 24 34 14 20 24 34 13 18 16 23 14 20 13 18 11 16 12 17 14 20 13 20 5 9v2l-275 1h-132l-166-1-19-3-21-6-16-8-13-10-14-14-14-19-10-15-13-19-11-16-29-43-17-25-14-20-10-15-16-23-14-20-22-33-24-34-22-33-14-20-12-18-7-11v-4l17-12 21-16 29-20 20-14 18-13 14-10 38-28 36-26 17-12 36-26 19-14 14-10 20-15 14-10 17-12 19-14 28-20 18-13z" fill="#2B3668"/>
<path transform="translate(477,479)" d="m0 0h92l15 2 10 6 6 9 4 10v124l-5 9-6 7-10 6-9 2h-90l-16-1-10-5-9-8-6-9-1-3-1-82v-33l2-9 7-11 5-6 9-6z" fill="#FACDA5"/>
<path transform="translate(467,716)" d="m0 0h110l8 2 9 6 7 9 3 7v123l-4 10-8 9-12 6-8 1h-87l-16-1-9-4-9-7-8-11-1-4-1-88v-16l1-16 7-11 9-10 6-4z" fill="#FACDA5"/>
<path transform="translate(700,479)" d="m0 0h91l13 2 10 5 10 10 4 9 1 6v112l-3 11-6 9-7 6-10 4-10 1h-93l-8-2-11-7-9-10-3-10-1-68v-48l4-11 11-12 7-5z" fill="#FACDA5"/>
<path transform="translate(698,716)" d="m0 0h100l9 2 9 6 8 9 4 9 1 6v101l-1 14-3 9-9 10-7 4-12 2h-101l-10-3-11-10-5-8-2-9v-116l6-10 9-10 7-5z" fill="#FACDA5"/>
</svg>
